Results
version=1
nRows=14
nColumns=24
inDegrees=yes
endheader
time	pelvis_tilt	pelvis_list	pelvis_rotation	pelvis_tx	pelvis_ty	pelvis_tz	hip_flexion_r	hip_adduction_r	hip_rotation_r	knee_angle_r	ankle_angle_r	subtalar_angle_r	mtp_angle_r	hip_flexion_l	hip_adduction_l	hip_rotation_l	knee_angle_l	ankle_angle_l	subtalar_angle_l	mtp_angle_l	lumbar_extension	lumbar_bending	lumbar_rotation
      1.30000000	     -0.36620765	     -6.83387786	     -1.93926476	      0.03739353	      1.05243622	      0.35232328	    -17.94696526	     12.28488457	     -3.49098718	     -5.20057645	      6.35259477	     -7.13716894	     -5.51252117	     24.36921332	     -3.59688980	     -8.21657870	      2.75245971	     13.18064529	      6.44021850	    -10.29990359	      5.23194160	     12.08501229	      3.06934302
      1.30416667	     -0.34493968	     -6.76527958	     -1.92416877	      0.04331542	      1.05219232	      0.35220579	    -18.15506551	     12.17376439	     -3.35693633	     -5.43643120	      5.90023019	     -7.26204092	     -5.49226581	     24.23738881	     -3.49021513	     -7.67569702	      2.45253068	     13.32643427	      5.71050921	    -10.36690748	      5.27069387	     11.97172569	      3.15676195
      1.30833333	     -0.29101996	     -6.72853753	     -1.93158638	      0.04907481	      1.05201975	      0.35202008	    -18.33887432	     12.07991357	     -3.43638417	     -5.79693199	      5.73575506	     -7.49924428	     -5.44635384	     24.08291303	     -3.41890707	     -7.22294140	      2.14114149	     13.02901041	      4.87187735	    -10.47748922	      5.20209386	     11.97542718	      3.22173194
      1.31250000	     -0.28113705	     -6.67923183	     -1.98207431	      0.05498621	      1.05184645	      0.35194144	    -18.49549245	     11.96513513	     -3.34553682	     -6.12948751	      5.47399237	     -7.42293191	     -5.38969932	     23.94955139	     -3.35909214	     -6.88007486	      1.81424827	     13.07929461	      4.42824075	    -10.56831948	      5.25589278	     11.85971764	      3.27894253
      1.31666667	     -0.28731676	     -6.64731002	     -2.04666153	      0.06089776	      1.05168042	      0.35191012	    -18.61497991	     11.86974586	     -3.28822476	     -6.51479556	      5.39213972	     -7.42127172	     -5.38337929	     23.84521508	     -3.32896102	     -6.73840794	      1.45686919	     13.02983440	      4.39902416	    -10.57712384	      5.34631325	     11.81117856	      3.29876619
      1.32083333	     -0.24772191	     -6.51735487	     -2.12506573	      0.06713167	      1.05164254	      0.35184907	    -18.80964444	     11.65285574	     -3.20718439	     -6.83473988	      4.89156785	     -7.39501135	     -5.34903719	     23.60038293	     -3.19430666	     -6.46335666	      1.23423819	     12.85804103	      3.95459078	    -10.62280812	      5.45283365	     11.64954026	      3.38174275
      1.32500000	     -0.25136308	     -6.49752021	     -2.19652542	      0.07304673	      1.05152469	      0.35180035	    -18.89688371	     11.56468305	     -3.19904959	     -7.27692811	      4.80355683	     -7.42477161	     -5.34027200	     23.46987198	     -3.17815741	     -6.34869486	      0.89966431	     12.78502165	      3.86583208	    -10.63171007	      5.50429251	     11.58808999	      3.40527457
      1.32916667	     -0.19137052	     -6.31959021	     -2.31032437	      0.07945083	      1.05162029	      0.35172189	    -19.08540290	     11.27426996	     -3.19354887	     -7.64868060	      4.18129071	     -7.45139778	     -5.28902151	     23.14153887	     -2.99588705	     -6.13973738	      0.78268339	     12.34962306	      3.16236015	    -10.68039973	      5.54649036	     11.40305965	      3.52102965
      1.33333333	     -0.18054238	     -6.31671719	     -2.36286548	      0.08535588	      1.05156577	      0.35163989	    -19.15756410	     11.20686823	     -3.16833395	     -8.15023374	      4.09211942	     -7.47389120	     -5.27693641	     22.97174168	     -2.98945823	     -6.01282851	      0.51099666	     12.25472030	      3.07651378	    -10.68761600	      5.60348345	     11.33740735	      3.54983403
      1.33750000	     -0.07380192	     -6.16958911	     -2.44593409	      0.09166567	      1.05174100	      0.35153405	    -19.35840844	     10.95548960	     -3.18498697	     -8.56159008	      3.43777247	     -7.48937398	     -5.17967961	     22.59077013	     -2.82785911	     -5.81497073	      0.42376799	     11.53783828	      2.12984289	    -10.73881027	      5.58976824	     11.10657183	      3.72446559
      1.34166667	     -0.08601401	     -6.11915686	     -2.55415844	      0.09777208	      1.05176303	      0.35146829	    -19.38110879	     10.81045365	     -3.16800546	     -9.11557994	      3.33446149	     -7.51794570	     -5.16522689	     22.36862447	     -2.78374938	     -5.67426277	      0.27526936	     11.43613094	      2.08964038	    -10.74284931	      5.64120202	     11.08174275	      3.74170078
      1.34583333	      0.02058937	     -5.94424725	     -2.68311218	      0.10420419	      1.05204331	      0.35144215	    -19.54743154	     10.51115312	     -3.18294786	     -9.59477362	      2.65419844	     -7.47982507	     -5.06930042	     21.95641856	     -2.60888146	     -5.69752765	      0.24115882	     10.64870746	      1.36100076	    -10.77108368	      5.67597472	     10.84292717	      3.89445288
      1.35000000	      0.15246541	     -5.82341399	     -2.77568768	      0.11038886	      1.05234279	      0.35128460	    -19.69709320	     10.27101113	     -3.19837898	    -10.15679840	      2.28054097	     -7.51930120	     -4.82678857	     21.49945672	     -2.46754415	     -5.30301916	      0.27311888	      9.96698331	      0.38854327	    -10.77943436	      5.44549107	     10.67189348	      4.13066535
      1.35416667	      0.16751821	     -5.77663450	     -2.87662220	      0.11650246	      1.05249499	      0.35123956	    -19.68273904	     10.12610855	     -3.22624973	    -10.81465488	      2.10383698	     -7.53572801	     -4.80717613	     21.23453483	     -2.42432853	     -5.27503393	      0.16637572	      9.81712619	      0.37003159	    -10.77993354	      5.57166515	     10.64533693	      4.14490587
